
<svg width="224px" height="74px" viewBox="651 323 224 74" version="1.1" xmlns="http://www.w3.org/2000/svg" xmlns:xlink="http://www.w3.org/1999/xlink">
    <defs></defs>
    <path d="M677.496,341.552 C677.325332,341.722668 677.186667,341.818667 677.08,341.84 C676.973333,341.861333 676.834668,341.914666 676.664,342 C676.450666,342.128001 676.237334,342.213333 676.024,342.256 C675.810666,342.298667 675.597334,342.341333 675.384,342.384 C675.213332,342.426667 674.978668,342.533332 674.68,342.704 C674.381332,342.874668 674.082668,342.981333 673.784,343.024 C673.229331,343.109334 672.61067,343.194666 671.928,343.28 C671.24533,343.365334 670.520004,343.450666 669.752,343.536 C670.648004,345.968012 671.43733,348.506653 672.12,351.152 C672.80267,353.797347 673.261332,356.357321 673.496,358.832 C673.730668,361.306679 673.666668,363.599989 673.304,365.712 C672.941332,367.824011 672.162673,369.56266 670.968,370.928 C669.517326,372.634675 667.512013,373.615999 664.952,373.872 C663.799994,374.000001 662.530674,373.936001 661.144,373.68 C659.757326,373.423999 658.424006,373.072002 657.144,372.624 C655.863994,372.175998 654.733338,371.653336 653.752,371.056 C652.770662,370.458664 652.130668,369.861336 651.832,369.264 C651.447998,368.538663 651.426665,367.856003 651.768,367.216 C651.896001,367.002666 651.981333,366.800001 652.024,366.608 C652.066667,366.415999 652.215999,366.298667 652.472,366.256 C652.685334,366.213333 652.973332,366.245333 653.336,366.352 C653.698668,366.458667 653.986666,366.554666 654.2,366.64 L655.096,366.448 C656.632008,367.301338 658.274658,367.951998 660.024,368.4 C661.773342,368.848002 663.437325,369.029334 665.016,368.944 C665.69867,368.901333 666.359997,368.752001 667,368.496 C667.640003,368.239999 668.173331,367.749337 668.6,367.024 C669.026669,366.127996 669.389332,364.773342 669.688,362.96 C669.986668,361.146658 670.157333,359.152011 670.2,356.976 C670.242667,354.799989 670.136001,352.538678 669.88,350.192 C669.623999,347.845322 669.176003,345.669343 668.536,343.664 C667.213327,343.749334 665.922673,343.824 664.664,343.888 C663.405327,343.952 662.392004,343.941334 661.624,343.856 C660.983997,343.770666 660.365336,343.653334 659.768,343.504 C659.170664,343.354666 658.552003,343.066669 657.912,342.64 C657.698666,342.938668 657.506668,343.194666 657.336,343.408 C657.165332,343.621334 656.994668,343.728 656.824,343.728 C656.397331,343.514666 656.066668,343.162669 655.832,342.672 C655.597332,342.181331 655.373334,341.808001 655.16,341.552 C655.031999,341.423999 654.989333,341.221335 655.032,340.944 C655.074667,340.666665 655.309331,340.506667 655.736,340.464 C656.120002,340.335999 656.99466,340.165334 658.36,339.952 C659.72534,339.738666 661.293324,339.568001 663.064,339.44 C664.834676,339.311999 666.669324,339.269333 668.568,339.312 C670.466676,339.354667 672.183992,339.567998 673.72,339.952 C675.128007,340.293335 676.386661,340.826663 677.496,341.552 L677.496,341.552 Z M689.08,352.624 L687.992,353.712 C688.333335,353.669333 688.855996,353.573334 689.56,353.424 C690.264004,353.274666 690.95733,353.2 691.64,353.2 C692.152003,353.285334 692.578665,353.455999 692.92,353.712 C693.261335,353.968001 693.474666,354.458663 693.56,355.184 C693.730668,356.208005 693.997332,357.242661 694.36,358.288 C694.722668,359.333339 694.999999,360.367995 695.192,361.392 C695.384001,362.416005 695.373334,363.386662 695.16,364.304 C694.946666,365.221338 694.370671,366.042663 693.432,366.768 C692.450662,368.261341 691.373339,369.509328 690.2,370.512 C689.026661,371.514672 687.800006,372.101332 686.52,372.272 C685.666662,372.400001 684.728005,372.282668 683.704,371.92 C682.679995,371.557332 681.933336,370.928004 681.464,370.032 C681.335999,370.117334 681.229334,370.128 681.144,370.064 C681.058666,370 680.973334,369.925334 680.888,369.84 C680.802666,369.754666 680.728,369.733333 680.664,369.776 C680.6,369.818667 680.546667,369.797334 680.504,369.712 C680.461333,369.583999 680.44,369.413334 680.44,369.2 L680.44,369.072 L680.44,368.944 C680.482667,367.450659 680.621332,365.946674 680.856,364.432 C681.090668,362.917326 681.453331,361.44534 681.944,360.016 C682.434669,358.58666 683.074663,357.242673 683.864,355.984 C684.653337,354.725327 685.66666,353.605338 686.904,352.624 C687.330669,352.367999 687.799997,352.282666 688.312,352.368 L688.632,352.368 C688.760001,352.368 688.909332,352.453332 689.08,352.624 L689.08,352.624 Z M686.904,356.976 C686.647999,356.933333 686.498667,356.848001 686.456,356.72 C686.413333,356.591999 686.424,356.432001 686.488,356.24 C686.552,356.047999 686.637333,355.824001 686.744,355.568 C686.850667,355.311999 686.904,355.056001 686.904,354.8 C686.007996,355.610671 685.314669,356.591994 684.824,357.744 C684.333331,358.896006 683.981334,360.079994 683.768,361.296 C683.554666,362.512006 683.458667,363.695994 683.48,364.848 C683.501333,366.000006 683.554666,367.002662 683.64,367.856 C683.725334,368.581337 683.874666,369.167998 684.088,369.616 C684.301334,370.064002 684.621331,370.330666 685.048,370.416 C685.517336,370.544001 686.135996,370.416002 686.904,370.032 C688.013339,369.477331 688.90933,368.709338 689.592,367.728 C690.27467,366.746662 690.829331,365.701339 691.256,364.592 C691.426668,363.994664 691.565333,363.280004 691.672,362.448 C691.778667,361.615996 691.746668,360.837337 691.576,360.112 C691.362666,359.130662 690.818671,358.416002 689.944,357.968 C689.069329,357.519998 688.056006,357.189334 686.904,356.976 L686.904,356.976 Z M701.688,339.504 C701.773334,339.589334 701.848,339.653333 701.912,339.696 C701.976,339.738667 702.008,339.823999 702.008,339.952 C702.008,341.274673 702.071999,342.661326 702.2,344.112 C702.328001,345.562674 702.455999,347.023993 702.584,348.496 C702.712001,349.968007 702.829333,351.429326 702.936,352.88 C703.042667,354.330674 703.096,355.695994 703.096,356.976 C703.394668,356.549331 703.746665,356.058669 704.152,355.504 C704.557335,354.949331 705.037331,354.437336 705.592,353.968 C706.146669,353.498664 706.754663,353.104002 707.416,352.784 C708.077337,352.463998 708.813329,352.282667 709.624,352.24 C709.922668,351.941332 710.199999,351.792 710.456,351.792 C710.882669,351.749333 711.287998,351.887998 711.672,352.208 C712.056002,352.528002 712.461331,352.901331 712.888,353.328 C713.442669,353.882669 713.911998,354.543996 714.296,355.312 C714.680002,356.080004 714.935999,356.869329 715.064,357.68 C715.192001,358.490671 715.181334,359.279996 715.032,360.048 C714.882666,360.816004 714.530669,361.477331 713.976,362.032 C713.421331,363.653341 712.653338,365.007995 711.672,366.096 C710.690662,367.184005 709.645339,368.005331 708.536,368.56 L704.696,370.48 C704.439999,370.608001 704.194668,370.767999 703.96,370.96 C703.725332,371.152001 703.480001,371.311999 703.224,371.44 C703.010666,371.525334 702.850667,371.493334 702.744,371.344 C702.637333,371.194666 702.477334,371.077334 702.264,370.992 C701.751997,370.778666 701.432001,370.458669 701.304,370.032 C701.175999,369.647998 701.090667,369.328001 701.048,369.072 C701.005333,368.815999 700.941334,368.453336 700.856,367.984 C700.386664,365.893323 700.056001,363.589346 699.864,361.072 C699.671999,358.554654 699.565333,356.048012 699.544,353.552 C699.522667,351.055988 699.544,348.645345 699.608,346.32 C699.672,343.994655 699.746666,341.978675 699.832,340.272 C699.832,339.717331 699.864,339.354668 699.928,339.184 C699.992,339.013332 700.130666,338.885334 700.344,338.8 C700.429334,338.757333 700.535999,338.714667 700.664,338.672 C700.792001,338.629333 700.962666,338.650666 701.176,338.736 C701.304001,338.778667 701.4,338.874666 701.464,339.024 C701.528,339.173334 701.602666,339.333332 701.688,339.504 L701.688,339.504 Z M712.888,358.192 C712.888,357.935999 712.770668,357.605335 712.536,357.2 C712.301332,356.794665 712.024002,356.400002 711.704,356.016 C711.383998,355.631998 711.032002,355.290668 710.648,354.992 C710.263998,354.693332 709.922668,354.501334 709.624,354.416 C709.154664,354.544001 708.557337,354.853331 707.832,355.344 C707.106663,355.834669 706.509336,356.378664 706.04,356.976 C704.80266,358.469341 704.141334,360.047992 704.056,361.712 C703.970666,363.376008 704.205331,365.018659 704.76,366.64 C705.144002,366.511999 705.64533,366.298668 706.264,366 C706.88267,365.701332 707.53333,365.360002 708.216,364.976 C708.89867,364.591998 709.559997,364.197335 710.2,363.792 C710.840003,363.386665 711.373331,363.013335 711.8,362.672 C712.269336,362.117331 712.567999,361.509337 712.696,360.848 C712.824001,360.186663 712.888,359.301339 712.888,358.192 L712.888,358.192 Z M760.632,346.096 C761.186669,348.82668 761.186669,351.503987 760.632,354.128 C760.077331,356.752013 758.989341,359.151989 757.368,361.328 C756.813331,362.437339 756.066671,363.141332 755.128,363.44 C754.189329,363.738668 753.165339,363.888 752.056,363.888 C751.799999,363.888 751.437336,363.898667 750.968,363.92 C750.498664,363.941333 750.018669,363.984 749.528,364.048 C749.037331,364.112 748.568002,364.176 748.12,364.24 C747.671998,364.304 747.320001,364.378666 747.064,364.464 L747.32,369.072 C747.32,369.498669 747.277334,369.946664 747.192,370.416 C747.106666,370.885336 747.021334,371.311998 746.936,371.696 C746.850666,372.208003 746.829333,372.645332 746.872,373.008 C746.914667,373.370668 746.893334,373.807997 746.808,374.32 C746.722666,374.832003 746.648,375.365331 746.584,375.92 C746.52,376.474669 746.488,377.050664 746.488,377.648 C745.933331,376.794662 745.442669,375.632007 745.016,374.16 C744.589331,372.687993 744.216002,371.045342 743.896,369.232 C743.575998,367.418658 743.309334,365.530676 743.096,363.568 C742.882666,361.605324 742.701334,359.706676 742.552,357.872 C742.402666,356.037324 742.296,354.341341 742.232,352.784 C742.168,351.226659 742.114667,349.978671 742.072,349.04 C741.261329,349.381335 740.450671,349.807997 739.64,350.32 C738.829329,350.832003 738.061337,351.322664 737.336,351.792 C737.122666,351.962668 736.898668,351.984001 736.664,351.856 C736.429332,351.727999 736.205334,351.727999 735.992,351.856 C735.821332,352.026668 735.661334,352.112 735.512,352.112 C735.362666,352.112 735.224001,352.069334 735.096,351.984 C734.967999,351.898666 734.861334,351.802667 734.776,351.696 C734.690666,351.589333 734.605334,351.536 734.52,351.536 C734.434666,351.279999 734.413333,351.098667 734.456,350.992 C734.498667,350.885333 734.52,350.746668 734.52,350.576 C734.562667,350.319999 734.594667,350.074668 734.616,349.84 C734.637333,349.605332 734.754666,349.402668 734.968,349.232 C737.528013,347.18399 739.938655,345.637339 742.2,344.592 C744.461345,343.546661 746.55199,342.789336 748.472,342.32 C750.52001,341.765331 752.375992,341.605332 754.04,341.84 C755.704008,342.074668 757.346659,342.938659 758.968,344.432 C759.437336,344.560001 759.831998,344.741332 760.152,344.976 C760.472002,345.210668 760.632,345.583997 760.632,346.096 L760.632,346.096 Z M757.496,347.376 C757.026664,346.735997 756.386671,346.288001 755.576,346.032 C754.765329,345.775999 753.848005,345.669333 752.824,345.712 C751.799995,345.754667 750.744005,345.914665 749.656,346.192 C748.567995,346.469335 747.533338,346.821331 746.552,347.248 L746.552,350.096 C746.552,351.226672 746.562667,352.421327 746.584,353.68 C746.605333,354.938673 746.648,356.197327 746.712,357.456 C746.776,358.714673 746.850666,359.877328 746.936,360.944 C747.576003,360.730666 748.311996,360.528001 749.144,360.336 C749.976004,360.143999 750.807996,359.909335 751.64,359.632 C752.472004,359.354665 753.26133,359.002669 754.008,358.576 C754.75467,358.149331 755.362664,357.552004 755.832,356.784 C756.088001,356.229331 756.375998,355.536004 756.696,354.704 C757.016002,353.871996 757.282666,352.997338 757.496,352.08 C757.709334,351.162662 757.826667,350.288004 757.848,349.456 C757.869333,348.623996 757.752001,347.930669 757.496,347.376 L757.496,347.376 Z M774.2,352.624 L773.112,353.712 C773.453335,353.669333 773.975996,353.573334 774.68,353.424 C775.384004,353.274666 776.07733,353.2 776.76,353.2 C777.272003,353.285334 777.698665,353.455999 778.04,353.712 C778.381335,353.968001 778.594666,354.458663 778.68,355.184 C778.850668,356.208005 779.117332,357.242661 779.48,358.288 C779.842668,359.333339 780.119999,360.367995 780.312,361.392 C780.504001,362.416005 780.493334,363.386662 780.28,364.304 C780.066666,365.221338 779.490671,366.042663 778.552,366.768 C777.570662,368.261341 776.493339,369.509328 775.32,370.512 C774.146661,371.514672 772.920006,372.101332 771.64,372.272 C770.786662,372.400001 769.848005,372.282668 768.824,371.92 C767.799995,371.557332 767.053336,370.928004 766.584,370.032 C766.455999,370.117334 766.349334,370.128 766.264,370.064 C766.178666,370 766.093334,369.925334 766.008,369.84 C765.922666,369.754666 765.848,369.733333 765.784,369.776 C765.72,369.818667 765.666667,369.797334 765.624,369.712 C765.581333,369.583999 765.56,369.413334 765.56,369.2 L765.56,369.072 L765.56,368.944 C765.602667,367.450659 765.741332,365.946674 765.976,364.432 C766.210668,362.917326 766.573331,361.44534 767.064,360.016 C767.554669,358.58666 768.194663,357.242673 768.984,355.984 C769.773337,354.725327 770.78666,353.605338 772.024,352.624 C772.450669,352.367999 772.919997,352.282666 773.432,352.368 L773.752,352.368 C773.880001,352.368 774.029332,352.453332 774.2,352.624 L774.2,352.624 Z M772.024,356.976 C771.767999,356.933333 771.618667,356.848001 771.576,356.72 C771.533333,356.591999 771.544,356.432001 771.608,356.24 C771.672,356.047999 771.757333,355.824001 771.864,355.568 C771.970667,355.311999 772.024,355.056001 772.024,354.8 C771.127996,355.610671 770.434669,356.591994 769.944,357.744 C769.453331,358.896006 769.101334,360.079994 768.888,361.296 C768.674666,362.512006 768.578667,363.695994 768.6,364.848 C768.621333,366.000006 768.674666,367.002662 768.76,367.856 C768.845334,368.581337 768.994666,369.167998 769.208,369.616 C769.421334,370.064002 769.741331,370.330666 770.168,370.416 C770.637336,370.544001 771.255996,370.416002 772.024,370.032 C773.133339,369.477331 774.02933,368.709338 774.712,367.728 C775.39467,366.746662 775.949331,365.701339 776.376,364.592 C776.546668,363.994664 776.685333,363.280004 776.792,362.448 C776.898667,361.615996 776.866668,360.837337 776.696,360.112 C776.482666,359.130662 775.938671,358.416002 775.064,357.968 C774.189329,357.519998 773.176006,357.189334 772.024,356.976 L772.024,356.976 Z M804.28,350.448 C804.28,350.832002 804.343999,351.311997 804.472,351.888 C804.600001,352.464003 804.557334,352.922665 804.344,353.264 C804.258666,353.349334 804.216,353.509332 804.216,353.744 C804.216,353.978668 804.152001,354.138666 804.024,354.224 L803.192,353.712 C802.50933,353.370665 801.752004,353.221333 800.92,353.264 C800.087996,353.306667 799.245338,353.498665 798.392,353.84 C797.794664,354.096001 797.208003,354.447998 796.632,354.896 C796.055997,355.344002 795.512003,355.845331 795,356.4 C794.487997,356.954669 794.018669,357.530664 793.592,358.128 C793.165331,358.725336 792.802668,359.301331 792.504,359.856 C791.82133,361.09334 791.490667,362.586658 791.512,364.336 C791.533333,366.085342 792.16266,368.346653 793.4,371.12 C793.4,371.418668 793.186669,371.781331 792.76,372.208 C792.674666,372.293334 792.568001,372.421332 792.44,372.592 C792.311999,372.762668 792.205334,372.890666 792.12,372.976 C791.778665,373.274668 791.576,373.530666 791.512,373.744 C791.448,373.957334 791.309334,374.106666 791.096,374.192 C790.754665,374.320001 790.434668,374.021337 790.136,373.296 C789.410663,372.015994 788.717337,370.448009 788.056,368.592 C787.394663,366.735991 786.776003,364.826676 786.2,362.864 C785.623997,360.901324 785.112002,359.013342 784.664,357.2 C784.215998,355.386658 783.864001,353.86134 783.608,352.624 C783.479999,352.282665 783.458666,351.952002 783.544,351.632 C783.629334,351.311998 783.757332,351.045334 783.928,350.832 C784.056001,350.661332 784.215999,350.618666 784.408,350.704 C784.600001,350.789334 784.759999,350.832 784.888,350.832 C785.442669,350.832 785.783999,350.938666 785.912,351.152 C786.040001,351.365334 786.253332,351.642665 786.552,351.984 C787.149336,352.66667 787.618665,353.583994 787.96,354.736 C788.301335,355.888006 788.727997,357.253325 789.24,358.832 C789.92267,357.679994 790.807995,356.570672 791.896,355.504 C792.984005,354.437328 794.167994,353.466671 795.448,352.592 C796.728006,351.717329 798.05066,351.002669 799.416,350.448 C800.78134,349.893331 802.103994,349.552001 803.384,349.424 C803.640001,349.381333 803.863999,349.455999 804.056,349.648 C804.248001,349.840001 804.322667,350.106665 804.28,350.448 L804.28,350.448 Z M830.136,356.976 C830.221334,357.061334 830.285333,357.104 830.328,357.104 C830.370667,357.104 830.392,357.146666 830.392,357.232 C830.349333,357.317334 830.253334,357.413333 830.104,357.52 C829.954666,357.626667 829.688002,357.701333 829.304,357.744 C829.175999,357.786667 829.005334,357.861333 828.792,357.968 C828.578666,358.074667 828.408001,358.149333 828.28,358.192 C827.127994,358.448001 825.773341,358.682666 824.216,358.896 C822.658659,359.109334 821.048008,359.301332 819.384,359.472 C819.298666,360.965341 819.266667,362.351994 819.288,363.632 C819.309333,364.912006 819.362666,366.021329 819.448,366.96 C819.533334,367.685337 819.874664,368.037333 820.472,368.016 C821.069336,367.994667 821.687997,367.877334 822.328,367.664 C822.498668,367.621333 822.95733,367.418668 823.704,367.056 C824.45067,366.693332 825.325328,366.266669 826.328,365.776 C827.330672,365.285331 828.386661,364.752003 829.496,364.176 C830.605339,363.599997 831.607996,363.077336 832.504,362.608 C832.504,363.205336 832.184003,363.781331 831.544,364.336 C831.202665,364.634668 830.829335,364.911999 830.424,365.168 C830.018665,365.424001 829.602669,365.701332 829.176,366 C828.706664,366.298668 828.386668,366.618665 828.216,366.96 C828.045332,367.301335 827.661336,367.663998 827.064,368.048 C825.954661,368.773337 824.760006,369.434664 823.48,370.032 C822.199994,370.629336 821.048005,371.055999 820.024,371.312 C819.682665,371.397334 819.330668,371.44 818.968,371.44 C818.605332,371.44 818.253335,371.503999 817.912,371.632 C817.399997,371.845334 817.005335,371.802668 816.728,371.504 C816.450665,371.205332 816.269334,370.778669 816.184,370.224 C816.013332,368.645325 815.896,366.960009 815.832,365.168 C815.768,363.375991 815.757333,361.562676 815.8,359.728 C814.519994,359.813334 813.336005,359.845333 812.248,359.824 C811.159995,359.802667 810.27467,359.728001 809.592,359.6 C808.951997,359.514666 808.365336,359.376001 807.832,359.184 C807.298664,358.991999 806.818669,358.682669 806.392,358.256 C806.007998,358.256 805.890666,358.074668 806.04,357.712 C806.189334,357.349332 806.306666,357.040001 806.392,356.784 C807.288004,356.741333 808.599991,356.688 810.328,356.624 C812.056009,356.56 813.922657,356.485334 815.928,356.4 C816.098668,352.858649 816.397331,349.573348 816.824,346.544 C817.250669,343.514652 817.762664,341.253341 818.36,339.76 C818.36,339.375998 818.519998,339.109334 818.84,338.96 C819.160002,338.810666 819.490665,338.629334 819.832,338.416 C820.002668,338.330666 820.183999,338.213334 820.376,338.064 C820.568001,337.914666 820.834665,337.84 821.176,337.84 C821.560002,338.053334 821.837332,338.234666 822.008,338.384 C822.178668,338.533334 822.264,338.714666 822.264,338.928 C822.264,339.141334 822.200001,339.397332 822.072,339.696 C821.943999,339.994668 821.794668,340.378664 821.624,340.848 C821.538666,340.976001 821.410668,341.509329 821.24,342.448 C821.069332,343.386671 820.888001,344.57066 820.696,346 C820.503999,347.42934 820.301334,349.050658 820.088,350.864 C819.874666,352.677342 819.704001,354.501324 819.576,356.336 C820.984007,356.336 822.327994,356.346667 823.608,356.368 C824.888006,356.389333 826.018662,356.442666 827,356.528 L830.136,356.976 Z M849.656,352.24 C850.210669,353.60534 850.733331,355.077325 851.224,356.656 C851.714669,358.234675 852.055999,359.802659 852.248,361.36 C852.440001,362.917341 852.440001,364.421326 852.248,365.872 C852.055999,367.322674 851.554671,368.581328 850.744,369.648 C850.402665,370.074669 849.997336,370.245334 849.528,370.16 C849.357332,370.117333 849.208001,370.010668 849.08,369.84 C848.951999,369.669332 848.781334,369.520001 848.568,369.392 C848.397332,369.263999 848.216001,369.157334 848.024,369.072 C847.831999,368.986666 847.650668,368.816001 847.48,368.56 C846.839997,368.773334 846.21067,369.082665 845.592,369.488 C844.97333,369.893335 844.344003,370.309331 843.704,370.736 C843.063997,371.162669 842.40267,371.578665 841.72,371.984 C841.03733,372.389335 840.333337,372.677332 839.608,372.848 C838.839996,373.061334 838.274668,373.029335 837.912,372.752 C837.549332,372.474665 837.154669,372.165335 836.728,371.824 C836.429332,371.567999 836.237334,371.408 836.152,371.344 C836.066666,371.28 835.981334,371.013336 835.896,370.544 C835.767999,369.605329 835.757333,368.592005 835.864,367.504 C835.970667,366.415995 836.215998,365.317339 836.6,364.208 C837.666672,360.965317 839.84265,358.789339 843.128,357.68 C843.512002,357.551999 843.906665,357.52 844.312,357.584 C844.717335,357.648 845.111998,357.765332 845.496,357.936 C845.880002,358.106668 846.253332,358.319999 846.616,358.576 C846.978668,358.832001 847.309332,359.087999 847.608,359.344 L848.632,360.176 C848.845334,359.450663 848.834668,358.672004 848.6,357.84 C848.365332,357.007996 848.013336,356.21867 847.544,355.472 C847.074664,354.72533 846.541336,354.053336 845.944,353.456 C845.346664,352.858664 844.770669,352.453334 844.216,352.24 C842.039989,352.24 840.088009,352.741328 838.36,353.744 C836.631991,354.746672 834.957341,356.058659 833.336,357.68 C833.250666,357.765334 833.154667,357.829333 833.048,357.872 C832.941333,357.914667 832.845334,357.957333 832.76,358 C832.631999,358.085334 832.482668,358.106667 832.312,358.064 C832.183999,358.021333 832.162666,357.893334 832.248,357.68 C832.504001,356.31466 833.015996,355.088005 833.784,354 C834.552004,352.911995 835.447995,351.962671 836.472,351.152 C837.496005,350.341329 838.583994,349.658669 839.736,349.104 C840.888006,348.549331 842.018661,348.144001 843.128,347.888 C843.298668,347.802666 843.458666,347.749333 843.608,347.728 C843.757334,347.706667 843.938666,347.696 844.152,347.696 C844.450668,347.696 844.727999,347.781332 844.984,347.952 C845.240001,348.122668 845.538665,348.314666 845.88,348.528 C846.306669,348.741334 846.733331,348.986665 847.16,349.264 C847.586669,349.541335 847.970665,349.871998 848.312,350.256 C848.610668,350.597335 848.866666,350.938665 849.08,351.28 C849.293334,351.621335 849.485332,351.941332 849.656,352.24 L849.656,352.24 Z M847.48,363.632 C847.223999,363.077331 846.829336,362.565336 846.296,362.096 C845.762664,361.626664 845.15467,361.274668 844.472,361.04 C843.78933,360.805332 843.053337,360.751999 842.264,360.88 C841.474663,361.008001 840.674671,361.391997 839.864,362.032 C839.607999,362.586669 839.352001,363.194663 839.096,363.856 C838.839999,364.517337 838.648001,365.178663 838.52,365.84 C838.391999,366.501337 838.338667,367.162663 838.36,367.824 C838.381333,368.485337 838.519999,369.093331 838.776,369.648 C840.397341,369.093331 841.975992,368.453337 843.512,367.728 C845.048008,367.002663 846.370661,366.362669 847.48,365.808 C847.736001,365.551999 847.885333,365.338668 847.928,365.168 C847.970667,364.997332 847.96,364.848001 847.896,364.72 C847.832,364.591999 847.746667,364.442668 847.64,364.272 C847.533333,364.101332 847.48,363.888001 847.48,363.632 L847.48,363.632 Z M861.624,340.656 C862.136003,342.960012 862.541332,345.263988 862.84,347.568 C863.138668,349.872012 863.415999,352.175988 863.672,354.48 C863.928001,356.784012 864.194665,359.087988 864.472,361.392 C864.749335,363.696012 865.122664,365.999988 865.592,368.304 C865.506666,368.858669 865.442667,369.306665 865.4,369.648 C865.357333,369.989335 865.250668,370.202666 865.08,370.288 C864.866666,370.416001 864.664001,370.554666 864.472,370.704 C864.279999,370.853334 864.077334,370.970666 863.864,371.056 C863.778666,371.098667 863.693334,371.173333 863.608,371.28 C863.522666,371.386667 863.426667,371.461333 863.32,371.504 C863.213333,371.546667 863.117334,371.546667 863.032,371.504 C862.946666,371.461333 862.840001,371.333334 862.712,371.12 C861.901329,368.687988 861.165337,366.234679 860.504,363.76 C859.842663,361.285321 859.309335,358.789346 858.904,356.272 C858.498665,353.754654 858.242667,351.205346 858.136,348.624 C858.029333,346.042654 858.103999,343.38668 858.36,340.656 C858.36,340.015997 858.551998,339.610668 858.936,339.44 C859.106668,339.354666 859.330665,339.418666 859.608,339.632 C859.885335,339.845334 860.130666,339.994666 860.344,340.08 C860.642668,340.208001 860.877332,340.282667 861.048,340.304 C861.218668,340.325333 861.410666,340.442666 861.624,340.656 L861.624,340.656 Z" id="Job-Portal" stroke="none" fill="#FFFFFF" fill-rule="evenodd"></path>
    <path d="M788.784,386.104 C789.568004,386.008 790.307997,385.896001 791.004,385.768 C791.700003,385.639999 792.359997,385.496001 792.984,385.336 C793.608003,385.175999 794.211997,384.996001 794.796,384.796 C795.380003,384.595999 795.959997,384.384001 796.536,384.16 C796.776001,384.047999 796.991999,383.992 797.184,383.992 C797.312001,383.992 797.368,384.047999 797.352,384.16 C797.384,384.24 797.416,384.284 797.448,384.292 C797.48,384.3 797.496,384.399999 797.496,384.592 C797.496,384.768001 797.448,384.935999 797.352,385.096 C797.256,385.256001 797.168,385.384 797.088,385.48 C796.943999,385.640001 796.688002,385.811999 796.32,385.996 C795.951998,386.180001 795.512003,386.367999 795,386.56 C794.487997,386.752001 793.944003,386.943999 793.368,387.136 C792.791997,387.328001 792.228003,387.503999 791.676,387.664 C791.123997,387.824001 790.620002,387.963999 790.164,388.084 C789.707998,388.204001 789.352001,388.288 789.096,388.336 C788.951999,388.368 788.816001,388.324001 788.688,388.204 C788.559999,388.083999 788.456,388.008 788.376,387.976 C788.151999,387.863999 788.028,387.720001 788.004,387.544 C787.98,387.367999 787.912001,387.152001 787.8,386.896 C787.671999,386.655999 787.584,386.404001 787.536,386.14 C787.488,385.875999 787.456,385.616001 787.44,385.36 C787.408,384.703997 787.408,384.048003 787.44,383.392 C787.472,382.735997 787.504,382.060003 787.536,381.364 C787.568,380.667997 787.584,379.948004 787.584,379.204 C787.584,378.459996 787.544,377.664004 787.464,376.816 C787.496,376.736 787.556,376.728 787.644,376.792 C787.732,376.856 787.824,376.904 787.92,376.936 C788,376.968 788.072,376.996 788.136,377.02 C788.2,377.044 788.256,377.096 788.304,377.176 C788.464001,377.464001 788.588,377.963996 788.676,378.676 C788.764,379.388004 788.82,380.183996 788.844,381.064 C788.868,381.944004 788.872,382.835995 788.856,383.74 C788.84,384.644005 788.816,385.431997 788.784,386.104 L788.784,386.104 Z M807.24,377.488 C807.208,377.552 807.208,377.6 807.24,377.632 C807.272,377.664 807.272,377.696 807.24,377.728 C807.192,377.76 807.108001,377.78 806.988,377.788 C806.867999,377.796 806.768,377.808 806.688,377.824 C806.575999,377.856 806.464001,377.868 806.352,377.86 C806.239999,377.852 806.120001,377.808 805.992,377.728 C805.799999,377.632 805.564001,377.54 805.284,377.452 C805.003999,377.364 804.704002,377.32 804.384,377.32 C803.967998,377.32 803.528002,377.364 803.064,377.452 C802.599998,377.54 802.156002,377.659999 801.732,377.812 C801.307998,377.964001 800.932002,378.151999 800.604,378.376 C800.275998,378.600001 800.040001,378.847999 799.896,379.12 C799.8,379.328001 799.76,379.547999 799.776,379.78 C799.792,380.012001 799.848,380.231999 799.944,380.44 C800.04,380.648001 800.155999,380.835999 800.292,381.004 C800.428001,381.172001 800.559999,381.288 800.688,381.352 C801.088002,381.560001 801.531998,381.696 802.02,381.76 C802.508002,381.824 803.011997,381.864 803.532,381.88 C804.052003,381.896 804.567997,381.92 805.08,381.952 C805.592003,381.984 806.063998,382.063999 806.496,382.192 C806.720001,382.272 806.931999,382.336 807.132,382.384 C807.332001,382.432 807.511999,382.5 807.672,382.588 C807.832001,382.676 807.979999,382.795999 808.116,382.948 C808.252001,383.100001 808.368,383.319999 808.464,383.608 C808.608001,384.216003 808.576001,384.807997 808.368,385.384 C808.159999,385.976003 807.816002,386.499998 807.336,386.956 C806.855998,387.412002 806.312003,387.775999 805.704,388.048 C805.223998,388.256001 804.732003,388.396 804.228,388.468 C803.723997,388.54 803.236002,388.528 802.764,388.432 C802.291998,388.336 801.860002,388.152001 801.468,387.88 C801.075998,387.607999 800.760001,387.232002 800.52,386.752 C800.375999,386.447998 800.304,386.080002 800.304,385.648 C800.288,385.6 800.288,385.552 800.304,385.504 C800.336,385.391999 800.439999,385.336 800.616,385.336 C800.68,385.304 800.763999,385.324 800.868,385.396 C800.972001,385.468 801.048,385.512 801.096,385.528 C801.224001,385.544 801.347999,385.627999 801.468,385.78 C801.588001,385.932001 801.703999,386.056 801.816,386.152 C802.216002,386.568002 802.667997,386.82 803.172,386.908 C803.676003,386.996 804.163998,386.996 804.636,386.908 C805.108002,386.82 805.543998,386.680001 805.944,386.488 C806.344002,386.295999 806.639999,386.120001 806.832,385.96 C806.944001,385.864 807.067999,385.748001 807.204,385.612 C807.340001,385.475999 807.471999,385.324001 807.6,385.156 C807.728001,384.987999 807.836,384.808001 807.924,384.616 C808.012,384.423999 808.056,384.224001 808.056,384.016 C808.008,383.823999 807.880001,383.676001 807.672,383.572 C807.463999,383.467999 807.200002,383.384 806.88,383.32 C806.319997,383.224 805.768003,383.172 805.224,383.164 C804.679997,383.156 804.144003,383.16 803.616,383.176 C803.087997,383.192 802.568003,383.2 802.056,383.2 C801.543997,383.2 801.048002,383.144001 800.568,383.032 C800.423999,383 800.284001,382.948 800.148,382.876 C800.011999,382.804 799.880001,382.728 799.752,382.648 C799.623999,382.568 799.528,382.464001 799.464,382.336 C799.4,382.207999 799.328,382.072001 799.248,381.928 C799.168,381.783999 799.092,381.636001 799.02,381.484 C798.948,381.331999 798.896,381.168001 798.864,380.992 C798.784,380.479997 798.788,379.952003 798.876,379.408 C798.964,378.863997 799.167998,378.360002 799.488,377.896 C799.744001,377.511998 800.091998,377.180001 800.532,376.9 C800.972002,376.619999 801.467997,376.404001 802.02,376.252 C802.572003,376.099999 803.159997,376.028 803.784,376.036 C804.408003,376.044 805.047997,376.143999 805.704,376.336 C805.784,376.368 805.879999,376.412 805.992,376.468 C806.104001,376.524 806.2,376.568 806.28,376.6 C806.504001,376.712001 806.703999,376.847999 806.88,377.008 C807.056001,377.168001 807.176,377.327999 807.24,377.488 L807.24,377.488 Z M819.792,376.72 C819.808,376.880001 819.8,377.087999 819.768,377.344 C819.736,377.600001 819.704,377.839999 819.672,378.064 C819.64,378.224001 819.648,378.411999 819.696,378.628 C819.744,378.844001 819.776,379.023999 819.792,379.168 C819.696,379.472002 819.6,379.843998 819.504,380.284 C819.408,380.724002 819.32,381.187998 819.24,381.676 C819.16,382.164002 819.084,382.647998 819.012,383.128 C818.94,383.608002 818.896,384.039998 818.88,384.424 C818.976,384.728002 819.068,384.983999 819.156,385.192 C819.244,385.400001 819.32,385.595999 819.384,385.78 C819.448,385.964001 819.496,386.159999 819.528,386.368 C819.56,386.576001 819.576,386.831998 819.576,387.136 C819.463999,387.248001 819.396,387.316 819.372,387.34 C819.348,387.364 819.280001,387.416 819.168,387.496 C819.072,387.576 818.98,387.592 818.892,387.544 C818.804,387.496 818.712,387.472 818.616,387.472 C818.471999,387.472 818.4,387.456 818.4,387.424 C818.4,387.392 818.36,387.336 818.28,387.256 C818.023999,386.999999 817.812001,386.740001 817.644,386.476 C817.475999,386.211999 817.320001,385.948001 817.176,385.684 C817.031999,385.419999 816.900001,385.152001 816.78,384.88 C816.659999,384.607999 816.520001,384.336001 816.36,384.064 C816.167999,383.711998 815.932001,383.300002 815.652,382.828 C815.371999,382.355998 815.064002,381.896002 814.728,381.448 C814.391998,380.999998 814.028002,380.600002 813.636,380.248 C813.243998,379.895998 812.848002,379.672 812.448,379.576 C812.079998,380.824006 811.868,382.035994 811.812,383.212 C811.756,384.388006 811.831999,385.487995 812.04,386.512 C812.056,386.656001 812.056,386.752 812.04,386.8 C812.024,386.848 812,386.927999 811.968,387.04 C811.936,387.168001 811.9,387.323999 811.86,387.508 C811.82,387.692001 811.776,387.824 811.728,387.904 C811.744,388.128001 811.752,388.335999 811.752,388.528 C811.752,388.720001 811.712,388.864 811.632,388.96 C811.119997,388.143996 810.772001,387.244005 810.588,386.26 C810.403999,385.275995 810.324,384.272005 810.348,383.248 C810.372,382.223995 810.471999,381.220005 810.648,380.236 C810.824001,379.251995 811.015999,378.352004 811.224,377.536 C811.224,377.472 811.244,377.424 811.284,377.392 C811.324,377.36 811.36,377.328 811.392,377.296 C811.424,377.264 811.452,377.236 811.476,377.212 C811.5,377.188 811.536,377.168 811.584,377.152 C811.664,377.136 811.736,377.116 811.8,377.092 C811.864,377.068 811.936,377.056 812.016,377.056 C812.112,377.056 812.176,377.111999 812.208,377.224 C812.24,377.336001 812.272,377.424 812.304,377.488 C812.352,377.568 812.392,377.731999 812.424,377.98 C812.456,378.228001 812.464,378.392 812.448,378.472 C813.152004,378.568 813.771997,378.819998 814.308,379.228 C814.844003,379.636002 815.315998,380.103997 815.724,380.632 C816.132002,381.160003 816.487998,381.699997 816.792,382.252 C817.096002,382.804003 817.359999,383.279998 817.584,383.68 C817.6,383.327998 817.644,382.896003 817.716,382.384 C817.788,381.871997 817.868,381.352003 817.956,380.824 C818.044,380.295997 818.132,379.796002 818.22,379.324 C818.308,378.851998 818.376,378.480001 818.424,378.208 C818.472,377.983999 818.544,377.800001 818.64,377.656 C818.736,377.511999 818.839999,377.384001 818.952,377.272 C819.016,377.208 819.084,377.120001 819.156,377.008 C819.228,376.895999 819.319999,376.824 819.432,376.792 C819.512,376.76 819.572,376.744 819.612,376.744 C819.652,376.744 819.712,376.736 819.792,376.72 L819.792,376.72 Z M828.528,377.464 C828.56,377.688001 828.548,377.848 828.492,377.944 C828.436,378.04 828.392,378.191999 828.36,378.4 C828.28,378.912003 828.144001,379.387998 827.952,379.828 C827.759999,380.268002 827.520001,380.703998 827.232,381.136 C827.552002,381.136 827.907998,381.144 828.3,381.16 C828.692002,381.176 829.071998,381.232 829.44,381.328 C829.552001,381.36 829.652,381.416 829.74,381.496 C829.828,381.576 829.912,381.648 829.992,381.712 C830.120001,381.792 830.232,381.864 830.328,381.928 C830.424,381.992 830.504,382.079999 830.568,382.192 C830.728001,382.496002 830.796,382.795999 830.772,383.092 C830.748,383.388001 830.656001,383.687998 830.496,383.992 C830.079998,384.808004 829.500004,385.639996 828.756,386.488 C828.011996,387.336004 827.232004,388.135996 826.416,388.888 C826.271999,388.984 826.144001,389.036 826.032,389.044 C825.919999,389.052 825.816,389.072 825.72,389.104 C825.575999,389.168 825.436001,389.216 825.3,389.248 C825.163999,389.28 825.072,389.28 825.024,389.248 C824.96,389.2 824.96,389.148 825.024,389.092 C825.088,389.036 825.144,388.968 825.192,388.888 C825.496002,388.375997 825.875998,387.876002 826.332,387.388 C826.788002,386.899998 827.255998,386.408002 827.736,385.912 C828.216002,385.415998 828.683998,384.924002 829.14,384.436 C829.596002,383.947998 829.975998,383.448003 830.28,382.936 C829.975998,382.775999 829.564003,382.664 829.044,382.6 C828.523997,382.536 827.984003,382.504 827.424,382.504 C826.863997,382.504 826.336002,382.544 825.84,382.624 C825.343998,382.704 824.976001,382.807999 824.736,382.936 L824.736,383.38 C824.736,383.564001 824.728,383.759999 824.712,383.968 C824.696,384.176001 824.684,384.387999 824.676,384.604 C824.668,384.820001 824.656,385.023999 824.64,385.216 C824.592,385.440001 824.592,385.639999 824.64,385.816 C824.688,385.992001 824.728,386.167999 824.76,386.344 C824.792,386.552001 824.808,386.735999 824.808,386.896 L824.808,387.4 C824.808,387.496 824.816,387.603999 824.832,387.724 C824.848,387.844001 824.832,387.959999 824.784,388.072 C824.367998,387.591998 824.040001,387.024003 823.8,386.368 C823.559999,385.711997 823.376001,385.016004 823.248,384.28 C823.119999,383.543996 823.04,382.792004 823.008,382.024 C822.976,381.255996 822.968,380.516004 822.984,379.804 C823,379.091996 823.028,378.440003 823.068,377.848 C823.108,377.255997 823.144,376.760002 823.176,376.36 C822.999999,376.344 822.784001,376.356 822.528,376.396 C822.271999,376.436 822.032001,376.48 821.808,376.528 L821.616,376.528 C821.536,376.528 821.452,376.524 821.364,376.516 C821.276,376.508 821.2,376.496 821.136,376.48 C821.072,376.464 821.032,376.448 821.016,376.432 C820.968,376.384 820.924,376.38 820.884,376.42 C820.844,376.46 820.808,376.448 820.776,376.384 C820.712,376.255999 820.704,376.140001 820.752,376.036 C820.8,375.931999 820.784,375.816001 820.704,375.688 C820.848001,375.431999 821.107998,375.264 821.484,375.184 C821.860002,375.104 822.279998,375.048 822.744,375.016 C823.128002,374.936 823.531998,374.888 823.956,374.872 C824.380002,374.856 824.803998,374.876 825.228,374.932 C825.652002,374.988 826.055998,375.087999 826.44,375.232 C826.824002,375.376001 827.175998,375.567999 827.496,375.808 C827.688001,375.952001 827.871999,376.135999 828.048,376.36 C828.128,376.472001 828.212,376.651999 828.3,376.9 C828.388,377.148001 828.464,377.335999 828.528,377.464 L828.528,377.464 Z M827.4,377.464 C827.304,377.255999 827.148001,377.076001 826.932,376.924 C826.715999,376.771999 826.484001,376.648 826.236,376.552 C825.987999,376.456 825.732001,376.384 825.468,376.336 C825.203999,376.288 824.968001,376.264 824.76,376.264 C824.728,376.456001 824.692,376.763998 824.652,377.188 C824.612,377.612002 824.58,378.067998 824.556,378.556 C824.532,379.044002 824.512,379.523998 824.496,379.996 C824.48,380.468002 824.488,380.855998 824.52,381.16 C824.824002,381.031999 825.127998,380.864001 825.432,380.656 C825.736002,380.447999 826.015999,380.192002 826.272,379.888 C826.528001,379.583998 826.755999,379.232002 826.956,378.832 C827.156001,378.431998 827.304,377.976003 827.4,377.464 L827.4,377.464 Z M835.8,379.984 L835.392,380.392 C835.520001,380.376 835.715999,380.34 835.98,380.284 C836.244001,380.228 836.503999,380.2 836.76,380.2 C836.952001,380.232 837.111999,380.296 837.24,380.392 C837.368001,380.488 837.448,380.671999 837.48,380.944 C837.544,381.328002 837.643999,381.715998 837.78,382.108 C837.916001,382.500002 838.02,382.887998 838.092,383.272 C838.164,383.656002 838.16,384.019998 838.08,384.364 C838,384.708002 837.784002,385.015999 837.432,385.288 C837.063998,385.848003 836.660002,386.315998 836.22,386.692 C835.779998,387.068002 835.320002,387.288 834.84,387.352 C834.519998,387.4 834.168002,387.356001 833.784,387.22 C833.399998,387.083999 833.120001,386.848002 832.944,386.512 C832.896,386.544 832.856,386.548 832.824,386.524 C832.792,386.5 832.76,386.472 832.728,386.44 C832.696,386.408 832.668,386.4 832.644,386.416 C832.62,386.432 832.6,386.424 832.584,386.392 C832.568,386.344 832.56,386.28 832.56,386.2 L832.56,386.152 L832.56,386.104 C832.576,385.543997 832.628,384.980003 832.716,384.412 C832.804,383.843997 832.939999,383.292003 833.124,382.756 C833.308001,382.219997 833.547999,381.716002 833.844,381.244 C834.140001,380.771998 834.519998,380.352002 834.984,379.984 C835.144001,379.888 835.319999,379.856 835.512,379.888 L835.632,379.888 C835.68,379.888 835.736,379.92 835.8,379.984 L835.8,379.984 Z M834.984,381.616 C834.888,381.6 834.832,381.568 834.816,381.52 C834.8,381.472 834.804,381.412 834.828,381.34 C834.852,381.268 834.884,381.184 834.924,381.088 C834.964,380.992 834.984,380.896 834.984,380.8 C834.647998,381.104002 834.388001,381.471998 834.204,381.904 C834.019999,382.336002 833.888,382.779998 833.808,383.236 C833.728,383.692002 833.692,384.135998 833.7,384.568 C833.708,385.000002 833.728,385.375998 833.76,385.696 C833.792,385.968001 833.848,386.187999 833.928,386.356 C834.008,386.524001 834.127999,386.624 834.288,386.656 C834.464001,386.704 834.695999,386.656001 834.984,386.512 C835.400002,386.303999 835.735999,386.016002 835.992,385.648 C836.248001,385.279998 836.455999,384.888002 836.616,384.472 C836.68,384.247999 836.732,383.980002 836.772,383.668 C836.812,383.355998 836.8,383.064001 836.736,382.792 C836.656,382.423998 836.452002,382.156001 836.124,381.988 C835.795998,381.819999 835.416002,381.696 834.984,381.616 L834.984,381.616 Z M847.44,379.312 C846.831997,379.920003 846.220003,380.611996 845.604,381.388 C844.987997,382.164004 844.376003,382.855997 843.768,383.464 L845.424,385.36 L845.472,385.696 C845.584001,385.824001 845.644,385.92 845.652,385.984 C845.66,386.048 845.648,386.143999 845.616,386.272 C845.6,386.432001 845.568,386.599999 845.52,386.776 C845.488,386.904001 845.488,386.992 845.52,387.04 C845.552,387.088 845.536,387.128 845.472,387.16 L845.064,386.752 C844.743998,386.463999 844.404002,386.132002 844.044,385.756 C843.683998,385.379998 843.352002,385.016002 843.048,384.664 C842.935999,384.792001 842.784001,384.979999 842.592,385.228 C842.399999,385.476001 842.204001,385.735999 842.004,386.008 C841.803999,386.280001 841.612001,386.547999 841.428,386.812 C841.243999,387.076001 841.112,387.279999 841.032,387.424 L841.728,387.472 L840.24,388.288 C840.127999,388.079999 840.056,387.808002 840.024,387.472 C840.008,387.295999 840.016,387.2 840.048,387.184 C840.08,387.168 840.112,387.048001 840.144,386.824 C840.16,386.792 840.18,386.732 840.204,386.644 C840.228,386.556 840.252,386.464 840.276,386.368 C840.3,386.272 840.324,386.184 840.348,386.104 C840.372,386.024 840.4,385.96 840.432,385.912 C840.560001,385.719999 840.707999,385.512001 840.876,385.288 C841.044001,385.063999 841.207999,384.844001 841.368,384.628 C841.528001,384.411999 841.675999,384.216001 841.812,384.04 C841.948001,383.863999 842.04,383.728 842.088,383.632 C841.943999,383.471999 841.772001,383.288001 841.572,383.08 C841.371999,382.871999 841.168001,382.656001 840.96,382.432 C840.751999,382.207999 840.548001,381.988001 840.348,381.772 C840.147999,381.555999 839.976001,381.360001 839.832,381.184 C839.703999,381.055999 839.6,380.900001 839.52,380.716 C839.44,380.531999 839.448,380.352001 839.544,380.176 C839.624,380.047999 839.708,379.98 839.796,379.972 C839.884,379.964 839.983999,379.944 840.096,379.912 C840.272001,379.848 840.4,379.852 840.48,379.924 C840.56,379.996 840.663999,380.095999 840.792,380.224 C841.160002,380.544002 841.535998,380.911998 841.92,381.328 C842.304002,381.744002 842.631999,382.103998 842.904,382.408 C843.448003,381.783997 843.959998,381.208003 844.44,380.68 C844.920002,380.151997 845.439997,379.720002 846,379.384 C846.032,379.352 846.119999,379.336 846.264,379.336 C846.408001,379.336 846.496,379.328 846.528,379.312 C846.656001,379.28 846.748,379.264 846.804,379.264 C846.86,379.264 846.943999,379.256 847.056,379.24 C847.200001,379.224 847.308,379.216 847.38,379.216 C847.452,379.216 847.472,379.248 847.44,379.312 L847.44,379.312 Z M850.56,391.216 C850.56,391.312 850.6,391.415999 850.68,391.528 C850.76,391.640001 850.824,391.759999 850.872,391.888 C850.92,392.016001 850.932,392.155999 850.908,392.308 C850.884,392.460001 850.768001,392.639999 850.56,392.848 C850.512,392.928 850.452,392.976 850.38,392.992 C850.308,393.008 850.256,393.056 850.224,393.136 C850.176,393.280001 850.152,393.455999 850.152,393.664 C850.056,393.568 849.920001,393.468001 849.744,393.364 C849.567999,393.259999 849.396001,393.16 849.228,393.064 C849.059999,392.968 848.916001,392.868001 848.796,392.764 C848.675999,392.659999 848.632,392.552001 848.664,392.44 C848.696,392.344 848.704,392.252 848.688,392.164 C848.672,392.076 848.68,391.992 848.712,391.912 C848.856001,391.623999 849.023999,391.388001 849.216,391.204 C849.408001,391.019999 849.583999,390.888 849.744,390.808 C849.856001,390.808 849.944,390.824 850.008,390.856 C850.072,390.888 850.144,390.92 850.224,390.952 C850.304,390.984 850.38,391.012 850.452,391.036 C850.524,391.06 850.56,391.12 850.56,391.216 L850.56,391.216 Z M858.84,381.064 C858.888,381.144 858.908,381.22 858.9,381.292 C858.892,381.364 858.88,381.424 858.864,381.472 C858.735999,381.616001 858.632,381.712 858.552,381.76 C858.472,381.808 858.336001,381.88 858.144,381.976 C858.096,382.008 858.052,382.04 858.012,382.072 C857.972,382.104 857.928,382.12 857.88,382.12 C857.8,382.12 857.676001,382.056001 857.508,381.928 C857.339999,381.799999 857.160001,381.672001 856.968,381.544 C856.775999,381.415999 856.572001,381.32 856.356,381.256 C856.139999,381.192 855.944001,381.215999 855.768,381.328 C855.591999,381.568001 855.424001,381.875998 855.264,382.252 C855.103999,382.628002 854.98,383.023998 854.892,383.44 C854.804,383.856002 854.776,384.279998 854.808,384.712 C854.84,385.144002 854.967999,385.543998 855.192,385.912 C856.120005,386.008 856.943996,385.852002 857.664,385.444 C858.384004,385.035998 859.047997,384.528003 859.656,383.92 C859.656,384.032001 859.628,384.132 859.572,384.22 C859.516,384.308 859.464,384.4 859.416,384.496 C859.352,384.640001 859.284,384.779999 859.212,384.916 C859.14,385.052001 859.040001,385.183999 858.912,385.312 C858.687999,385.552001 858.436001,385.783999 858.156,386.008 C857.875999,386.232001 857.580002,386.427999 857.268,386.596 C856.955998,386.764001 856.636002,386.892 856.308,386.98 C855.979998,387.068 855.656002,387.096 855.336,387.064 C855.159999,387.048 855.036,387.004 854.964,386.932 C854.892,386.86 854.768001,386.784 854.592,386.704 C854.496,386.64 854.372001,386.584 854.22,386.536 C854.067999,386.488 853.952,386.424 853.872,386.344 C853.711999,386.151999 853.592,385.920001 853.512,385.648 C853.399999,385.295998 853.344,384.912002 853.344,384.496 C853.344,384.079998 853.372,383.676002 853.428,383.284 C853.484,382.891998 853.563999,382.536002 853.668,382.216 C853.772001,381.895998 853.864,381.648001 853.944,381.472 C854.04,381.263999 854.183999,381.084001 854.376,380.932 C854.568001,380.779999 854.779999,380.640001 855.012,380.512 C855.244001,380.383999 855.479999,380.264001 855.72,380.152 C855.960001,380.039999 856.183999,379.936 856.392,379.84 C857.208004,379.84 858.023996,380.247996 858.84,381.064 L858.84,381.064 Z M864.072,379.984 L863.664,380.392 C863.792001,380.376 863.987999,380.34 864.252,380.284 C864.516001,380.228 864.775999,380.2 865.032,380.2 C865.224001,380.232 865.383999,380.296 865.512,380.392 C865.640001,380.488 865.72,380.671999 865.752,380.944 C865.816,381.328002 865.915999,381.715998 866.052,382.108 C866.188001,382.500002 866.292,382.887998 866.364,383.272 C866.436,383.656002 866.432,384.019998 866.352,384.364 C866.272,384.708002 866.056002,385.015999 865.704,385.288 C865.335998,385.848003 864.932002,386.315998 864.492,386.692 C864.051998,387.068002 863.592002,387.288 863.112,387.352 C862.791998,387.4 862.440002,387.356001 862.056,387.22 C861.671998,387.083999 861.392001,386.848002 861.216,386.512 C861.168,386.544 861.128,386.548 861.096,386.524 C861.064,386.5 861.032,386.472 861,386.44 C860.968,386.408 860.94,386.4 860.916,386.416 C860.892,386.432 860.872,386.424 860.856,386.392 C860.84,386.344 860.832,386.28 860.832,386.2 L860.832,386.152 L860.832,386.104 C860.848,385.543997 860.9,384.980003 860.988,384.412 C861.076,383.843997 861.211999,383.292003 861.396,382.756 C861.580001,382.219997 861.819999,381.716002 862.116,381.244 C862.412001,380.771998 862.791998,380.352002 863.256,379.984 C863.416001,379.888 863.591999,379.856 863.784,379.888 L863.904,379.888 C863.952,379.888 864.008,379.92 864.072,379.984 L864.072,379.984 Z M863.256,381.616 C863.16,381.6 863.104,381.568 863.088,381.52 C863.072,381.472 863.076,381.412 863.1,381.34 C863.124,381.268 863.156,381.184 863.196,381.088 C863.236,380.992 863.256,380.896 863.256,380.8 C862.919998,381.104002 862.660001,381.471998 862.476,381.904 C862.291999,382.336002 862.16,382.779998 862.08,383.236 C862,383.692002 861.964,384.135998 861.972,384.568 C861.98,385.000002 862,385.375998 862.032,385.696 C862.064,385.968001 862.12,386.187999 862.2,386.356 C862.28,386.524001 862.399999,386.624 862.56,386.656 C862.736001,386.704 862.967999,386.656001 863.256,386.512 C863.672002,386.303999 864.007999,386.016002 864.264,385.648 C864.520001,385.279998 864.727999,384.888002 864.888,384.472 C864.952,384.247999 865.004,383.980002 865.044,383.668 C865.084,383.355998 865.072,383.064001 865.008,382.792 C864.928,382.423998 864.724002,382.156001 864.396,381.988 C864.067998,381.819999 863.688002,381.696 863.256,381.616 L863.256,381.616 Z" id="LSNBox.co" stroke="none" fill="#FFFFFF" fill-rule="evenodd"></path>
</svg>